<svg xmlns="http://www.w3.org/2000/svg" xmlns:xlink="http://www.w3.org/1999/xlink" width="100%" height="100%" version="1.1" viewBox="0 0 37 28" xml:space="preserve" style="fill-rule:evenodd;clip-rule:evenodd;stroke-linejoin:round;stroke-miterlimit:1.41421"><path id="check" d="M12.29,26.462c0.328,0.375 0.75,0.562 1.266,0.562c0.516,0 0.937,-0.187 1.266,-0.562l20.741,-20.672c0.329,-0.328 0.493,-0.75 0.493,-1.265c0,-0.516 -0.164,-0.938 -0.493,-1.266l-2.601,-2.531c-0.328,-0.375 -0.738,-0.563 -1.23,-0.563c-0.493,0 -0.926,0.188 -1.301,0.563l-16.875,16.875l-7.875,-7.875c-0.375,-0.375 -0.808,-0.563 -1.301,-0.563c-0.492,0 -0.902,0.188 -1.23,0.563l-2.602,2.531c-0.328,0.328 -0.492,0.75 -0.492,1.265c0,0.516 0.164,0.938 0.492,1.266l11.742,11.672Z" style="fill:#6ab255;fill-rule:nonzero"/></svg>